<?xml version="1.0" encoding="UTF-8" standalone="no"?>
<!DOCTYPE svg PUBLIC "-//W3C//DTD SVG 1.1//EN"
 "http://www.w3.org/Graphics/SVG/1.1/DTD/svg11.dtd">
<!-- Generated by graphviz version 2.40.1 (20161225.0304)
 -->
<!-- Title: dependencies Pages: 1 -->
<svg width="504pt" height="287pt"
 viewBox="0.00 0.00 504.00 287.00" xmlns="http://www.w3.org/2000/svg" xmlns:xlink="http://www.w3.org/1999/xlink">
<g id="graph0" class="graph" transform="scale(1 1) rotate(0) translate(4 283)">
<title>dependencies</title>
<polygon fill="#ffffff" stroke="transparent" points="-4,4 -4,-283 500,-283 500,4 -4,4"/>
<text text-anchor="start" x="227.0091" y="-42.4" font-family="sans-serif" font-weight="bold" font-size="14.00" fill="#000000">Legend</text>
<polygon fill="#ffffb3" stroke="transparent" points="14,-10 14,-30 34,-30 34,-10 14,-10"/>
<text text-anchor="start" x="37.629" y="-15.4" font-family="sans-serif" font-size="14.00" fill="#000000"> &#160;Declarations</text>
<polygon fill="#8dd3c7" stroke="transparent" points="127,-10 127,-30 147,-30 147,-10 127,-10"/>
<text text-anchor="start" x="150.7251" y="-15.4" font-family="sans-serif" font-size="14.00" fill="#000000"> &#160;Module</text>
<polygon fill="#80b1d3" stroke="transparent" points="213,-10 213,-30 233,-30 233,-10 213,-10"/>
<text text-anchor="start" x="236.7812" y="-15.4" font-family="sans-serif" font-size="14.00" fill="#000000"> &#160;Bootstrap</text>
<polygon fill="#fdb462" stroke="transparent" points="310,-10 310,-30 330,-30 330,-10 310,-10"/>
<text text-anchor="start" x="333.6732" y="-15.4" font-family="sans-serif" font-size="14.00" fill="#000000"> &#160;Providers</text>
<polygon fill="#fb8072" stroke="transparent" points="406,-10 406,-30 426,-30 426,-10 406,-10"/>
<text text-anchor="start" x="429.7258" y="-15.4" font-family="sans-serif" font-size="14.00" fill="#000000"> &#160;Exports</text>
<g id="clust1" class="cluster">
<title>cluster_AppModule</title>
<polygon fill="none" stroke="#000000" stroke-dasharray="1,5" points="95,-146 95,-271 383,-271 383,-146 95,-146"/>
</g>
<g id="clust3" class="cluster">
<title>cluster_AppModule_imports</title>
<polygon fill="none" stroke="#000000" points="241,-154 241,-206 375,-206 375,-154 241,-154"/>
</g>
<g id="clust6" class="cluster">
<title>cluster_AppModule_providers</title>
<polygon fill="none" stroke="#000000" points="103,-154 103,-206 233,-206 233,-154 103,-154"/>
</g>
<g id="clust7" class="cluster">
<title>cluster_ProvinciasModule</title>
<polygon fill="none" stroke="#000000" stroke-dasharray="1,5" points="215,-70 215,-138 401,-138 401,-70 215,-70"/>
</g>
<g id="clust12" class="cluster">
<title>cluster_ProvinciasModule_providers</title>
<polygon fill="none" stroke="#000000" points="223,-78 223,-130 393,-130 393,-78 223,-78"/>
</g>
<!-- ProvinciasModule -->
<g id="node1" class="node">
<title>ProvinciasModule</title>
<polygon fill="#8dd3c7" stroke="#000000" points="367.1485,-198 364.1485,-202 343.1485,-202 340.1485,-198 248.8515,-198 248.8515,-162 367.1485,-162 367.1485,-198"/>
<text text-anchor="middle" x="308" y="-175.8" font-family="Times,serif" font-size="14.00" fill="#000000">ProvinciasModule</text>
</g>
<!-- AppModule -->
<g id="node2" class="node">
<title>AppModule</title>
<polygon fill="#8dd3c7" stroke="#000000" points="279.6571,-263 276.6571,-267 255.6571,-267 252.6571,-263 196.3429,-263 196.3429,-227 279.6571,-227 279.6571,-263"/>
<text text-anchor="middle" x="238" y="-240.8" font-family="Times,serif" font-size="14.00" fill="#000000">AppModule</text>
</g>
<!-- ProvinciasModule&#45;&gt;AppModule -->
<g id="edge1" class="edge">
<title>ProvinciasModule&#45;&gt;AppModule</title>
<path fill="none" stroke="#000000" d="M264.2521,-198.1061C264.2521,-198.1061 264.2521,-216.991 264.2521,-216.991"/>
<polygon fill="#000000" stroke="#000000" points="260.7522,-216.9909 264.2521,-226.991 267.7522,-216.991 260.7522,-216.9909"/>
</g>
<!-- AppService -->
<g id="node3" class="node">
<title>AppService</title>
<ellipse fill="#fdb462" stroke="#000000" cx="168" cy="-180" rx="56.7406" ry="18"/>
<text text-anchor="middle" x="168" y="-175.8" font-family="Times,serif" font-size="14.00" fill="#000000">AppService</text>
</g>
<!-- AppService&#45;&gt;AppModule -->
<g id="edge2" class="edge">
<title>AppService&#45;&gt;AppModule</title>
<path fill="none" stroke="#000000" d="M210.396,-192.226C210.396,-192.226 210.396,-216.683 210.396,-216.683"/>
<polygon fill="#000000" stroke="#000000" points="206.8961,-216.683 210.396,-226.683 213.8961,-216.683 206.8961,-216.683"/>
</g>
<!-- ProvinciaService -->
<g id="node4" class="node">
<title>ProvinciaService</title>
<ellipse fill="#fdb462" stroke="#000000" cx="308" cy="-104" rx="77.0023" ry="18"/>
<text text-anchor="middle" x="308" y="-99.8" font-family="Times,serif" font-size="14.00" fill="#000000">ProvinciaService</text>
</g>
<!-- ProvinciaService&#45;&gt;ProvinciasModule -->
<g id="edge3" class="edge">
<title>ProvinciaService&#45;&gt;ProvinciasModule</title>
<path fill="none" stroke="#000000" d="M308,-122.0109C308,-122.0109 308,-151.855 308,-151.855"/>
<polygon fill="#000000" stroke="#000000" points="304.5001,-151.8549 308,-161.855 311.5001,-151.855 304.5001,-151.8549"/>
</g>
</g>
</svg>
